G04 (created by PCBNEW-RS274X (2012-jan-04)-stable) date pon, 21 sty 2013, 21:13:22*
G01*
G70*
G90*
%MOIN*%
G04 Gerber Fmt 3.4, Leading zero omitted, Abs format*
%FSLAX34Y34*%
G04 APERTURE LIST*
%ADD10C,0.006000*%
%ADD11C,0.055400*%
%ADD12R,0.086900X0.086900*%
%ADD13C,0.086900*%
%ADD14C,0.065300*%
%ADD15C,0.079100*%
%ADD16R,0.081000X0.081000*%
%ADD17C,0.081000*%
%ADD18R,0.071200X0.071200*%
%ADD19C,0.071200*%
%ADD20R,0.083000X0.083000*%
%ADD21C,0.083000*%
%ADD22C,0.236500*%
G04 APERTURE END LIST*
G54D10*
G54D11*
X43760Y-67146D03*
X43760Y-68878D03*
G54D12*
X46628Y-81742D03*
G54D13*
X48005Y-81742D03*
G54D12*
X61785Y-81742D03*
G54D13*
X63162Y-81742D03*
G54D12*
X43084Y-81742D03*
G54D13*
X44461Y-81742D03*
G54D14*
X51181Y-69823D03*
X51969Y-69823D03*
X52756Y-69823D03*
X53544Y-69823D03*
X54331Y-69823D03*
X55119Y-69823D03*
X55119Y-69036D03*
X53543Y-69036D03*
X54331Y-69036D03*
X52756Y-69036D03*
X51969Y-69036D03*
X51181Y-69036D03*
G54D15*
X59547Y-67913D03*
X59547Y-69095D03*
G54D16*
X57638Y-72598D03*
G54D17*
X57638Y-73598D03*
X56638Y-72598D03*
X56638Y-73598D03*
X55638Y-72598D03*
X55638Y-73598D03*
X54638Y-72598D03*
X54638Y-73598D03*
X53638Y-72598D03*
X53638Y-73598D03*
X52638Y-72598D03*
X52638Y-73598D03*
X51638Y-72598D03*
X51638Y-73598D03*
X50638Y-72598D03*
X50638Y-73598D03*
X49638Y-72598D03*
X49638Y-73598D03*
X48638Y-72598D03*
X48638Y-73598D03*
G54D16*
X56654Y-77106D03*
G54D17*
X56654Y-78106D03*
X55654Y-77106D03*
X55654Y-78106D03*
X54654Y-77106D03*
X54654Y-78106D03*
X53654Y-77106D03*
X53654Y-78106D03*
X52654Y-77106D03*
X52654Y-78106D03*
X51654Y-77106D03*
X51654Y-78106D03*
X50654Y-77106D03*
X50654Y-78106D03*
X49654Y-77106D03*
X49654Y-78106D03*
G54D16*
X56988Y-66929D03*
G54D17*
X56988Y-67929D03*
X56988Y-68929D03*
X56988Y-69929D03*
G54D16*
X46900Y-77400D03*
G54D17*
X46900Y-78400D03*
X46900Y-79400D03*
X46900Y-80400D03*
G54D16*
X59400Y-77400D03*
G54D17*
X59400Y-78400D03*
X59400Y-79400D03*
X59400Y-80400D03*
G54D18*
X62795Y-68602D03*
G54D19*
X62795Y-67618D03*
G54D12*
X58242Y-81742D03*
G54D13*
X59619Y-81742D03*
G54D16*
X57650Y-59750D03*
G54D17*
X57650Y-58750D03*
X56650Y-59750D03*
X56650Y-58750D03*
X55650Y-59750D03*
X55650Y-58750D03*
X54650Y-59750D03*
X54650Y-58750D03*
X53650Y-59750D03*
X53650Y-58750D03*
X52650Y-59750D03*
X52650Y-58750D03*
X51650Y-59750D03*
X51650Y-58750D03*
X50650Y-59750D03*
X50650Y-58750D03*
X49650Y-59750D03*
X49650Y-58750D03*
X48650Y-59750D03*
X48650Y-58750D03*
G54D20*
X56624Y-80978D03*
G54D21*
X56124Y-82978D03*
X55624Y-80978D03*
X55124Y-82978D03*
X54624Y-80978D03*
X54124Y-82978D03*
X53624Y-80978D03*
X53124Y-82978D03*
X52624Y-80978D03*
X52124Y-82978D03*
X51624Y-80978D03*
X51124Y-82978D03*
X50624Y-80978D03*
X50124Y-82978D03*
X49624Y-80978D03*
G54D22*
X43307Y-59055D03*
X62992Y-59055D03*
M02*
