M48
INCH,TZ
T1C0.016
T2C0.028
T3C0.032
T4C0.035
T5C0.039
T6C0.041
T7C0.043
T8C0.048
T9C0.158
%
G90
G05
T1
X4.252Y-7.187
X4.252Y-8.386
X4.339Y-7.085
X4.339Y-7.150
X4.400Y-7.388
X4.490Y-7.624
X4.504Y-7.032
X4.528Y-8.386
X4.557Y-6.770
X4.559Y-6.378
X4.583Y-6.805
X4.616Y-7.360
X4.618Y-6.679
X4.650Y-6.709
X4.715Y-6.163
X4.715Y-6.463
X4.715Y-6.904
X4.715Y-7.413
X4.774Y-5.827
X4.785Y-6.024
X4.821Y-6.059
X4.821Y-6.163
X4.823Y-6.585
X4.833Y-6.850
X4.833Y-7.028
X4.837Y-7.939
X4.864Y-6.077
X4.866Y-7.815
X4.884Y-7.886
X4.894Y-7.081
X4.896Y-6.679
X4.913Y-7.854
X4.921Y-6.219
X4.921Y-8.386
X4.927Y-6.709
X4.980Y-6.301
X4.980Y-6.465
X4.984Y-6.250
X5.000Y-6.510
X5.012Y-6.189
X5.015Y-7.761
X5.034Y-6.807
X5.051Y-6.171
X5.063Y-6.776
X5.079Y-7.032
X5.126Y-6.852
X5.128Y-6.059
X5.144Y-6.100
X5.158Y-6.567
X5.215Y-7.224
X5.216Y-6.560
X5.246Y-6.593
X5.256Y-7.884
X5.276Y-6.642
X5.284Y-6.278
X5.284Y-7.032
X5.303Y-7.669
X5.305Y-6.858
X5.309Y-6.795
X5.315Y-7.201
X5.317Y-6.089
X5.331Y-6.559
X5.345Y-6.030
X5.345Y-8.032
X5.384Y-6.510
X5.402Y-6.313
X5.429Y-7.864
X5.431Y-7.971
X5.451Y-7.205
X5.461Y-6.760
X5.494Y-6.559
X5.500Y-6.219
X5.500Y-6.262
X5.504Y-6.754
X5.514Y-7.187
X5.534Y-6.815
X5.537Y-6.240
X5.539Y-6.026
X5.547Y-7.892
X5.575Y-6.219
X5.595Y-7.187
X5.626Y-6.530
X5.626Y-7.132
X5.628Y-7.215
X5.630Y-6.065
X5.644Y-6.417
X5.648Y-6.293
X5.709Y-8.386
X5.740Y-7.193
X5.742Y-6.953
X5.752Y-7.030
X5.760Y-6.480
X5.770Y-7.155
X5.809Y-6.197
X5.809Y-6.693
X5.847Y-8.000
X5.965Y-7.343
X6.012Y-7.116
X6.012Y-7.270
X6.024Y-5.974
X6.071Y-5.919
X6.085Y-7.270
X6.102Y-8.386
X6.106Y-6.543
X6.106Y-6.762
X6.216Y-6.368
X6.219Y-6.411
X6.230Y-6.986
X6.291Y-7.226
X6.378Y-7.187
X6.378Y-7.343
X6.398Y-8.386
T2
X5.118Y-6.904
X5.118Y-6.982
X5.197Y-6.904
X5.197Y-6.982
X5.276Y-6.904
X5.276Y-6.982
X5.354Y-6.904
X5.354Y-6.982
X5.433Y-6.904
X5.433Y-6.982
X5.512Y-6.904
X5.512Y-6.982
T3
X6.280Y-6.762
X6.280Y-6.860
T4
X4.376Y-6.715
X4.376Y-6.888
T5
X5.955Y-6.791
X5.955Y-6.910
T6
X4.690Y-7.740
X4.690Y-7.840
X4.690Y-7.940
X4.690Y-8.040
X4.864Y-7.260
X4.864Y-7.360
X4.865Y-5.875
X4.865Y-5.975
X4.964Y-7.260
X4.964Y-7.360
X4.965Y-5.875
X4.965Y-5.975
X4.965Y-7.711
X4.965Y-7.811
X5.064Y-7.260
X5.064Y-7.360
X5.065Y-5.875
X5.065Y-5.975
X5.065Y-7.711
X5.065Y-7.811
X5.164Y-7.260
X5.164Y-7.360
X5.165Y-5.875
X5.165Y-5.975
X5.165Y-7.711
X5.165Y-7.811
X5.264Y-7.260
X5.264Y-7.360
X5.265Y-5.875
X5.265Y-5.975
X5.265Y-7.711
X5.265Y-7.811
X5.364Y-7.260
X5.364Y-7.360
X5.365Y-5.875
X5.365Y-5.975
X5.365Y-7.711
X5.365Y-7.811
X5.464Y-7.260
X5.464Y-7.360
X5.465Y-5.875
X5.465Y-5.975
X5.465Y-7.711
X5.465Y-7.811
X5.564Y-7.260
X5.564Y-7.360
X5.565Y-5.875
X5.565Y-5.975
X5.565Y-7.711
X5.565Y-7.811
X5.664Y-7.260
X5.664Y-7.360
X5.665Y-5.875
X5.665Y-5.975
X5.665Y-7.711
X5.665Y-7.811
X5.699Y-6.693
X5.699Y-6.793
X5.699Y-6.893
X5.699Y-6.993
X5.764Y-7.260
X5.764Y-7.360
X5.765Y-5.875
X5.765Y-5.975
X5.940Y-7.740
X5.940Y-7.840
X5.940Y-7.940
X5.940Y-8.040
T7
X4.962Y-8.098
X5.012Y-8.298
X5.062Y-8.098
X5.112Y-8.298
X5.162Y-8.098
X5.212Y-8.298
X5.262Y-8.098
X5.312Y-8.298
X5.362Y-8.098
X5.412Y-8.298
X5.462Y-8.098
X5.512Y-8.298
X5.562Y-8.098
X5.612Y-8.298
X5.662Y-8.098
T8
X4.308Y-8.174
X4.446Y-8.174
X4.663Y-8.174
X4.801Y-8.174
X5.824Y-8.174
X5.962Y-8.174
X6.179Y-8.174
X6.316Y-8.174
T9
X4.331Y-5.905
X6.299Y-5.905
T0
M30
